<svg xmlns="http://www.w3.org/2000/svg" viewBox="0 0 512 512" width="512" height="512">
  <circle cx="256" cy="256" r="248" fill="#0d3b66" stroke="#d4af37" stroke-width="6"/>
  <circle cx="256" cy="256" r="236" fill="none" stroke="#d4af37" stroke-width="2" stroke-dasharray="8 6" opacity="0.6"/>
  <circle cx="256" cy="256" r="220" fill="none" stroke="#d4af37" stroke-width="1" opacity="0.3"/>
  <polygon points="256,50 268,95 310,78 288,115 328,115 300,135 310,175 278,152 256,178 234,152 202,175 212,135 184,115 224,115 244,78 254,95" fill="#d4af37" opacity="0.9"/>
  <g transform="translate(256,240)">
    <ellipse cx="0" cy="20" rx="65" ry="45" fill="#d4af37"/>
    <path d="M-30,-10 Q-90,-80 -150,-120 Q-120,-95 -90,-70 Q-70,-50 -50,-25 Z" fill="#d4af37" stroke="#b8962e" stroke-width="1.5"/>
    <path d="M-50,-25 Q-100,-60 -140,-80 Q-110,-50 -75,-20 Q-55,-5 -10,10 Z" fill="#e8c84a" stroke="#b8962e" stroke-width="1"/>
    <path d="M30,-10 Q90,-80 150,-120 Q120,-95 90,-70 Q70,-50 50,-25 Z" fill="#d4af37" stroke="#b8962e" stroke-width="1.5"/>
    <path d="M50,-25 Q100,-60 140,-80 Q110,-50 75,-20 Q55,-5 10,10 Z" fill="#e8c84a" stroke="#b8962e" stroke-width="1"/>
    <circle cx="0" cy="-35" r="22" fill="#d4af37"/>
    <path d="M-8,-42 Q-30,-38 -40,-30 Q-30,-32 -20,-35 Q-10,-38 0,-38 Z" fill="#b8962e"/>
    <path d="M8,-42 Q30,-38 40,-30 Q30,-32 20,-35 Q10,-38 0,-38 Z" fill="#b8962e"/>
    <circle cx="-14" cy="-38" r="3" fill="#0d3b66"/>
    <circle cx="14" cy="-38" r="3" fill="#0d3b66"/>
    <path d="M-40,55 Q-55,80 -60,100 Q-45,85 -30,70 Q-20,60 -15,50 Z" fill="#d4af37" stroke="#b8962e" stroke-width="1"/>
    <path d="M40,55 Q55,80 60,100 Q45,85 30,70 Q20,60 15,50 Z" fill="#d4af37" stroke="#b8962e" stroke-width="1"/>
    <path d="M-30,20 Q0,35 30,20" fill="none" stroke="#b8962e" stroke-width="2" opacity="0.5"/>
  </g>
  <circle cx="256" cy="205" r="35" fill="none" stroke="#d4af37" stroke-width="1.5" opacity="0.4"/>
  <rect x="55" y="55" width="402" height="402" rx="30" fill="none" stroke="#d4af37" stroke-width="1.5" opacity="0.4" stroke-dasharray="4 8"/>
  <circle cx="95" cy="95" r="3" fill="#d4af37" opacity="0.6"/>
  <circle cx="417" cy="95" r="3" fill="#d4af37" opacity="0.6"/>
  <circle cx="95" cy="417" r="3" fill="#d4af37" opacity="0.6"/>
  <circle cx="417" cy="417" r="3" fill="#d4af37" opacity="0.6"/>
</svg>